<svg xmlns="http://www.w3.org/2000/svg" viewBox="0 0 80 80" width="80" height="80">
  <!-- Safe space / privacy icon - shield with warmth -->
  <defs>
    <linearGradient id="shield-grad" x1="0%" y1="0%" x2="0%" y2="100%">
      <stop offset="0%" stop-color="#7A8B6F"/>
      <stop offset="100%" stop-color="#5C6B4F"/>
    </linearGradient>
  </defs>
  <!-- Shield shape - rounded, soft, not corporate -->
  <path d="M40 8 Q18 16 14 28 Q12 44 20 56 Q28 68 40 74 Q52 68 60 56 Q68 44 66 28 Q62 16 40 8Z" 
        fill="url(#shield-grad)" opacity="0.15" stroke="#7A8B6F" stroke-width="1.5"/>
  <!-- Inner shield -->
  <path d="M40 16 Q24 22 22 32 Q20 44 26 52 Q32 60 40 64 Q48 60 54 52 Q60 44 58 32 Q56 22 40 16Z" 
        fill="none" stroke="#7A8B6F" stroke-width="1" opacity="0.4" stroke-dasharray="3 3"/>
  <!-- Heart inside -->
  <path d="M40 48 L32 40 Q28 34 34 32 Q38 30 40 34 Q42 30 46 32 Q52 34 48 40 Z" 
        fill="#C4653A" opacity="0.7"/>
  <!-- Small lock element -->
  <rect x="36" y="52" width="8" height="6" rx="1" fill="#3D2B1F" opacity="0.3"/>
  <path d="M38 52 L38 49 Q38 46 40 46 Q42 46 42 49 L42 52" fill="none" stroke="#3D2B1F" stroke-width="1" opacity="0.3"/>
</svg>
